<svg width="30" height="30" viewBox="0 0 30 30" fill="none" xmlns="http://www.w3.org/2000/svg">
<g clip-path="url(#clip0_8_578)">
<path fill-rule="evenodd" clip-rule="evenodd" d="M10.0351 0.377441C8.38405 0.377441 6.80071 1.0333 5.63328 2.20073L0 7.83397V10.4125C0 12.2342 0.782517 13.8732 2.02976 15.0116C0.782517 16.15 0 17.7889 0 19.6107V22.1892L5.63328 27.8225C6.80071 28.9899 8.38405 29.6457 10.0351 29.6457C11.8568 29.6457 13.4958 28.8632 14.6341 27.616C15.7725 28.8632 17.4115 29.6457 19.2332 29.6457C20.8842 29.6457 22.4676 28.9899 23.635 27.8225L29.2683 22.1892V19.6107C29.2683 17.7889 28.4858 16.15 27.2385 15.0116C28.4858 13.8732 29.2683 12.2342 29.2683 10.4125V7.83397L23.635 2.20073C22.4676 1.0333 20.8842 0.377441 19.2332 0.377441C17.4115 0.377441 15.7725 1.15996 14.6341 2.4072C13.4958 1.15996 11.8568 0.377441 10.0351 0.377441ZM18.8479 15.0116C18.7777 14.9476 18.7089 14.8818 18.6414 14.8143L14.6341 10.807L10.6269 14.8143C10.5594 14.8818 10.4906 14.9476 10.4204 15.0116C10.4906 15.0756 10.5594 15.1414 10.6269 15.2088L14.6341 19.2161L18.6414 15.2088C18.7089 15.1414 18.7777 15.0756 18.8479 15.0116ZM16.2601 22.1892V23.4207C16.2601 25.0626 17.5913 26.3937 19.2332 26.3937C20.0217 26.3937 20.7779 26.0805 21.3355 25.5229L26.0163 20.8421V19.6107C26.0163 17.9687 24.6852 16.6376 23.0432 16.6376C22.2547 16.6376 21.4985 16.9508 20.941 17.5084L16.2601 22.1892ZM13.0081 22.1892L8.32734 17.5084C7.76978 16.9508 7.01359 16.6376 6.22509 16.6376C4.58311 16.6376 3.25203 17.9687 3.25203 19.6107V20.8421L7.93281 25.5229C8.49037 26.0805 9.24658 26.3937 10.0351 26.3937C11.677 26.3937 13.0081 25.0626 13.0081 23.4207V22.1892ZM13.0081 6.60253V7.83397L8.32734 12.5148C7.76978 13.0723 7.01359 13.3856 6.22509 13.3856C4.58311 13.3856 3.25203 12.0545 3.25203 10.4125V9.18104L7.93281 4.50026C8.49037 3.94271 9.24658 3.62948 10.0351 3.62948C11.677 3.62948 13.0081 4.96055 13.0081 6.60253ZM20.941 12.5148L16.2601 7.83397V6.60253C16.2601 4.96055 17.5913 3.62948 19.2332 3.62948C20.0217 3.62948 20.7779 3.94271 21.3355 4.50026L26.0163 9.18104V10.4125C26.0163 12.0545 24.6852 13.3856 23.0432 13.3856C22.2547 13.3856 21.4985 13.0723 20.941 12.5148Z" fill="#0B251C"/>
</g>
<defs>
<clipPath id="clip0_8_578">
<rect width="29.2683" height="30" fill="white"/>
</clipPath>
</defs>
</svg>
